<svg xmlns="http://www.w3.org/2000/svg" width="960" height="620" viewBox="0 0 960 620">
<rect width="960" height="620" rx="28" fill="#f6f2fc"/><rect x="28" y="28" width="904" height="564" rx="22" fill="white"/><rect x="28" y="28" width="904" height="74" rx="22" fill="#231a38"/><text x="64" y="76" fill="white" font-family="Arial" font-size="28" font-weight="bold">MiniPOS</text><text x="735" y="74" fill="#d6c7ff" font-family="Arial" font-size="18">Nueva venta</text>
<text x="64" y="155" fill="#231a38" font-family="Arial" font-size="32" font-weight="bold">Venta en curso</text><text x="64" y="190" fill="#625a73" font-family="Arial" font-size="18">Añade productos y revisa el total</text>
<rect x="62" y="223" width="510" height="70" rx="16" fill="#f5f2fb"/><text x="86" y="266" fill="#231a38" font-family="Arial" font-size="21">Café molido</text><text x="471" y="266" fill="#6032e8" font-family="Arial" font-size="21" font-weight="bold">2 ×</text>
<rect x="62" y="306" width="510" height="70" rx="16" fill="#f5f2fb"/><text x="86" y="349" fill="#231a38" font-family="Arial" font-size="21">Leche</text><text x="471" y="349" fill="#6032e8" font-family="Arial" font-size="21" font-weight="bold">1 ×</text>
<rect x="62" y="389" width="510" height="70" rx="16" fill="#f5f2fb"/><text x="86" y="432" fill="#231a38" font-family="Arial" font-size="21">Pan</text><text x="471" y="432" fill="#6032e8" font-family="Arial" font-size="21" font-weight="bold">3 ×</text>
<rect x="604" y="223" width="282" height="236" rx="20" fill="#e9e1ff"/><text x="635" y="276" fill="#625a73" font-family="Arial" font-size="18">Total de la venta</text><text x="635" y="343" fill="#231a38" font-family="Arial" font-size="49" font-weight="bold">$ 740</text><rect x="634" y="384" width="222" height="50" rx="13" fill="#6032e8"/><text x="690" y="416" fill="white" font-family="Arial" font-size="19" font-weight="bold">Cobrar</text>
<rect x="62" y="493" width="824" height="56" rx="14" fill="#231a38"/><text x="90" y="528" fill="white" font-family="Arial" font-size="18">Venta</text><text x="296" y="528" fill="#cfc4e4" font-family="Arial" font-size="18">Inventario</text><text x="542" y="528" fill="#cfc4e4" font-family="Arial" font-size="18">Resumen</text>
</svg>
